<svg width="58" height="58" viewBox="0 0 58 58" fill="none" xmlns="http://www.w3.org/2000/svg">
<g id="setting 1">
<rect width="58" height="58" stroke="black"/>
<path id="Vector" d="M29.0007 54.6887C27.3815 54.6887 25.7382 54.3262 24.4573 53.577L11.1657 45.9162C5.7524 42.267 5.41406 41.7112 5.41406 35.9837V22.0154C5.41406 16.2879 5.72823 15.732 11.0449 12.1312L24.4332 4.39786C26.9707 2.92369 30.9582 2.92369 33.4957 4.39786L46.8357 12.0829C52.249 15.732 52.5873 16.2879 52.5873 22.0154V35.9595C52.5873 41.687 52.2732 42.2429 46.9565 45.8437L33.5682 53.577C32.2632 54.3262 30.6198 54.6887 29.0007 54.6887ZM29.0007 6.93536C27.9857 6.93536 26.9948 7.1287 26.294 7.53953L13.0024 15.2245C9.06323 17.8829 9.06323 17.8829 9.06323 22.0154V35.9595C9.06323 40.092 9.06323 40.092 13.0991 42.8229L26.294 50.4354C27.7198 51.257 30.3057 51.257 31.7315 50.4354L45.0232 42.7504C48.9382 40.092 48.9382 40.092 48.9382 35.9595V22.0154C48.9382 17.8829 48.9382 17.8829 44.9023 15.152L31.7073 7.53953C31.0065 7.1287 30.0157 6.93536 29.0007 6.93536Z" fill="black"/>
<path id="Vector_2" d="M29 38.0625C23.9975 38.0625 19.9375 34.0025 19.9375 29C19.9375 23.9975 23.9975 19.9375 29 19.9375C34.0025 19.9375 38.0625 23.9975 38.0625 29C38.0625 34.0025 34.0025 38.0625 29 38.0625ZM29 23.5625C26.0033 23.5625 23.5625 26.0033 23.5625 29C23.5625 31.9967 26.0033 34.4375 29 34.4375C31.9967 34.4375 34.4375 31.9967 34.4375 29C34.4375 26.0033 31.9967 23.5625 29 23.5625Z" fill="black"/>
</g>
</svg>
